<svg width="1458" height="719" viewBox="0 0 1458 719" fill="none" xmlns="http://www.w3.org/2000/svg">
<path opacity="0.043478" d="M3 715.918H360.51C432.932 715.918 498.2 665.097 525.8 587.216L578.735 437.844C603.922 366.771 660.766 317.658 726.541 310.14L812.446 300.321C875.816 293.078 924.767 232.352 926.912 158.33C928.4 106.853 952.216 58.382 992.793 37.7557C1035.07 16.2641 1070.5 7.47527 1120.53 3" stroke="#AB21EC" stroke-width="5" stroke-linecap="round" stroke-dasharray="0.05 20"/>
<path opacity="0.086957" d="M9.38574 715.918H366.895C439.317 715.918 504.586 665.097 532.185 587.216L585.121 437.844C610.308 366.771 667.152 317.658 732.927 310.14L818.832 300.321C882.202 293.078 931.152 232.352 933.298 158.33C934.786 106.853 958.602 58.382 999.179 37.7557C1041.45 16.2641 1076.89 7.47527 1126.92 3" stroke="#AB21EC" stroke-width="5" stroke-linecap="round" stroke-dasharray="0.05 20"/>
<path opacity="0.130435" d="M15.7695 715.918H373.279C445.701 715.918 510.97 665.097 538.569 587.216L591.505 437.844C616.692 366.771 673.536 317.658 739.311 310.14L825.216 300.321C888.586 293.078 937.536 232.352 939.682 158.33C941.169 106.853 964.986 58.382 1005.56 37.7557C1047.84 16.2642 1083.27 7.47527 1133.3 3" stroke="#AB21EC" stroke-width="5" stroke-linecap="round" stroke-dasharray="0.05 20"/>
<path opacity="0.173913" d="M22.1553 715.918H379.665C452.087 715.918 517.355 665.097 544.955 587.216L597.89 437.844C623.078 366.771 679.921 317.658 745.697 310.14L831.602 300.321C894.972 293.078 943.922 232.352 946.067 158.33C947.555 106.853 971.372 58.382 1011.95 37.7557C1054.22 16.2642 1089.66 7.47527 1139.69 3" stroke="#AB21EC" stroke-width="5" stroke-linecap="round" stroke-dasharray="0.05 20"/>
<path opacity="0.217391" d="M28.541 715.918H386.051C458.473 715.918 523.741 665.097 551.341 587.216L604.276 437.844C629.463 366.771 686.307 317.658 752.082 310.14L837.987 300.321C901.357 293.078 950.308 232.352 952.453 158.33C953.941 106.853 977.757 58.382 1018.33 37.7557C1060.61 16.2642 1096.04 7.47527 1146.07 3" stroke="#AB21EC" stroke-width="5" stroke-linecap="round" stroke-dasharray="0.05 20"/>
<path opacity="0.26087" d="M34.9258 715.918H392.435C464.857 715.918 530.126 665.097 557.725 587.216L610.661 437.844C635.848 366.771 692.692 317.658 758.467 310.14L844.372 300.321C907.745 293.078 956.693 232.352 958.838 158.33C960.326 106.853 984.142 58.382 1024.72 37.7557C1066.99 16.2642 1102.43 7.47527 1152.46 3" stroke="#AB21EC" stroke-width="5" stroke-linecap="round" stroke-dasharray="0.05 20"/>
<path opacity="0.304348" d="M41.3105 715.918H398.82C471.242 715.918 536.511 665.097 564.11 587.216L617.046 437.844C642.233 366.771 699.077 317.658 764.852 310.14L850.757 300.321C914.129 293.078 963.077 232.352 965.223 158.33C966.71 106.853 990.527 58.382 1031.1 37.7557C1073.38 16.2642 1108.81 7.47527 1158.84 3" stroke="#AB21EC" stroke-width="5" stroke-linecap="round" stroke-dasharray="0.05 20"/>
<path opacity="0.347826" d="M47.6953 715.918H405.205C477.627 715.918 542.895 665.097 570.495 587.216L623.43 437.844C648.618 366.771 705.461 317.658 771.237 310.14L857.142 300.321C920.514 293.078 969.462 232.352 971.607 158.33C973.095 106.853 996.912 58.382 1037.49 37.7556C1079.76 16.2641 1115.2 7.47527 1165.23 3" stroke="#AB21EC" stroke-width="5" stroke-linecap="round" stroke-dasharray="0.05 20"/>
<path opacity="0.391304" d="M54.0811 715.918H411.591C484.013 715.918 549.281 665.097 576.881 587.216L629.816 437.844C655.003 366.771 711.847 317.658 777.622 310.14L863.527 300.321C926.9 293.078 975.848 232.352 977.993 158.33C979.481 106.853 1003.3 58.382 1043.87 37.7557C1086.15 16.2641 1121.58 7.47527 1171.61 3" stroke="#AB21EC" stroke-width="5" stroke-linecap="round" stroke-dasharray="0.05 20"/>
<path opacity="0.434783" d="M60.4658 715.918H417.975C490.398 715.918 555.666 665.097 583.265 587.216L636.201 437.844C661.388 366.771 718.232 317.658 784.007 310.14L869.912 300.321C933.285 293.078 982.233 232.352 984.378 158.33C985.866 106.853 1009.68 58.382 1050.26 37.7557C1092.53 16.2641 1127.97 7.47527 1178 3" stroke="#AB21EC" stroke-width="5" stroke-linecap="round" stroke-dasharray="0.05 20"/>
<path opacity="0.478261" d="M66.8506 715.918H424.36C496.782 715.918 562.051 665.097 589.65 587.216L642.586 437.844C667.773 366.771 724.617 317.658 790.392 310.14L876.297 300.321C939.669 293.078 988.617 232.352 990.763 158.33C992.25 106.853 1016.07 58.382 1056.64 37.7557C1098.92 16.2641 1134.35 7.47527 1184.38 3" stroke="#AB21EC" stroke-width="5" stroke-linecap="round" stroke-dasharray="0.05 20"/>
<path opacity="0.521739" d="M73.2363 715.918H430.746C503.168 715.918 568.436 665.097 596.036 587.216L648.971 437.844C674.159 366.771 731.002 317.658 796.778 310.14L882.683 300.321C946.055 293.078 995.003 232.352 997.148 158.33C998.636 106.853 1022.45 58.382 1063.03 37.7557C1105.31 16.2641 1140.74 7.47527 1190.77 3" stroke="#AB21EC" stroke-width="5" stroke-linecap="round" stroke-dasharray="0.05 20"/>
<path opacity="0.565217" d="M79.6211 715.918H437.131C509.553 715.918 574.821 665.097 602.421 587.216L655.356 437.844C680.543 366.771 737.387 317.658 803.162 310.14L889.067 300.321C952.44 293.078 1001.39 232.352 1003.53 158.33C1005.02 106.853 1028.84 58.382 1069.41 37.7557C1111.69 16.2642 1147.12 7.47527 1197.15 3" stroke="#AB21EC" stroke-width="5" stroke-linecap="round" stroke-dasharray="0.05 20"/>
<path opacity="0.608696" d="M86.0059 715.918H443.515C515.938 715.918 581.206 665.097 608.805 587.216L661.741 437.844C686.928 366.771 743.772 317.658 809.547 310.14L895.452 300.321C958.825 293.078 1007.77 232.352 1009.92 158.33C1011.41 106.853 1035.22 58.382 1075.8 37.7557C1118.07 16.2642 1153.51 7.47527 1203.54 3" stroke="#AB21EC" stroke-width="5" stroke-linecap="round" stroke-dasharray="0.05 20"/>
<path opacity="0.652174" d="M92.3906 715.918H449.9C522.322 715.918 587.591 665.097 615.19 587.216L668.126 437.844C693.313 366.771 750.157 317.658 815.932 310.14L901.837 300.321C965.209 293.078 1014.16 232.352 1016.3 158.33C1017.79 106.853 1041.61 58.382 1082.18 37.7557C1124.46 16.2642 1159.89 7.47527 1209.92 3" stroke="#AB21EC" stroke-width="5" stroke-linecap="round" stroke-dasharray="0.05 20"/>
<path opacity="0.695652" d="M98.7764 715.918H456.286C528.708 715.918 593.976 665.097 621.576 587.216L674.511 437.844C699.699 366.771 756.542 317.658 822.318 310.14L908.223 300.321C971.595 293.078 1020.54 232.352 1022.69 158.33C1024.18 106.853 1047.99 58.382 1088.57 37.7557C1130.85 16.2642 1166.28 7.47527 1216.31 3" stroke="#AB21EC" stroke-width="5" stroke-linecap="round" stroke-dasharray="0.05 20"/>
<path opacity="0.73913" d="M105.161 715.918H462.671C535.093 715.918 600.361 665.097 627.961 587.216L680.896 437.844C706.083 366.771 762.927 317.658 828.702 310.14L914.608 300.321C977.98 293.078 1026.93 232.352 1029.07 158.33C1030.56 106.853 1054.38 58.382 1094.95 37.7556C1137.23 16.2641 1172.66 7.47527 1222.69 3" stroke="#AB21EC" stroke-width="5" stroke-linecap="round" stroke-dasharray="0.05 20"/>
<path opacity="0.782609" d="M111.547 715.918H469.056C541.479 715.918 606.747 665.097 634.346 587.216L687.282 437.844C712.469 366.771 769.313 317.658 835.088 310.14L920.994 300.321C984.366 293.078 1033.31 232.352 1035.46 158.33C1036.95 106.853 1060.76 58.382 1101.34 37.7557C1143.62 16.2641 1179.05 7.47527 1229.08 3" stroke="#AB21EC" stroke-width="5" stroke-linecap="round" stroke-dasharray="0.05 20"/>
<path opacity="0.826087" d="M117.932 715.918H475.441C547.863 715.918 613.132 665.097 640.731 587.216L693.667 437.844C718.854 366.771 775.698 317.658 841.473 310.14L927.379 300.321C990.75 293.078 1039.7 232.352 1041.84 158.33C1043.33 106.853 1067.15 58.382 1107.73 37.7557C1150 16.2641 1185.43 7.47527 1235.46 3" stroke="#AB21EC" stroke-width="5" stroke-linecap="round" stroke-dasharray="0.05 20"/>
<path opacity="0.869565" d="M124.316 715.918H481.826C554.248 715.918 619.516 665.097 647.116 587.216L700.051 437.844C725.239 366.771 782.082 317.658 847.858 310.14L933.763 300.321C997.135 293.078 1046.08 232.352 1048.23 158.33C1049.72 106.853 1073.53 58.382 1114.11 37.7557C1156.39 16.2641 1191.82 7.47527 1241.85 3" stroke="#AB21EC" stroke-width="5" stroke-linecap="round" stroke-dasharray="0.05 20"/>
<path opacity="0.913043" d="M130.702 715.918H488.212C560.634 715.918 625.902 665.097 653.502 587.216L706.437 437.844C731.624 366.771 788.468 317.658 854.244 310.14L940.149 300.321C1003.52 293.078 1052.47 232.352 1054.61 158.33C1056.1 106.853 1079.92 58.382 1120.5 37.7557C1162.77 16.2641 1198.2 7.47527 1248.24 3" stroke="#AB21EC" stroke-width="5" stroke-linecap="round" stroke-dasharray="0.05 20"/>
<path opacity="0.956522" d="M137.087 715.918H494.596C567.019 715.918 632.287 665.097 659.886 587.216L712.822 437.844C738.009 366.771 794.853 317.658 860.628 310.14L946.534 300.321C1009.91 293.078 1058.85 232.352 1061 158.33C1062.49 106.853 1086.3 58.382 1126.88 37.7557C1169.16 16.2642 1204.59 7.47527 1254.62 3" stroke="#AB21EC" stroke-width="5" stroke-linecap="round" stroke-dasharray="0.05 20"/>
<path d="M143.472 715.918H500.981C573.403 715.918 638.671 665.097 666.271 587.216L719.207 437.844C744.394 366.771 801.238 317.658 867.013 310.14L952.919 300.321C1016.29 293.078 1065.24 232.352 1067.38 158.33C1068.87 106.853 1092.69 58.382 1133.27 37.7557C1175.54 16.2641 1210.97 7.47527 1261 3" stroke="#AB21EC" stroke-width="5" stroke-linecap="round" stroke-dasharray="0.05 20"/>
<path opacity="0.043478" d="M297.352 716H676.829C737.72 716 794.425 679.951 827.305 620.34L867.391 547.664C900.271 488.052 956.973 452.004 1017.87 452.004H1079.99C1166.59 452.004 1232.05 360.776 1216.56 261.666C1201.07 162.556 1266.53 71.3269 1353.14 71.3269H1455.24" stroke="#2D68FF" stroke-width="5" stroke-linecap="round" stroke-dasharray="0.05 20"/>
<path opacity="0.086957" d="M290.967 716H670.444C731.335 716 788.04 679.951 820.92 620.34L861.006 547.664C893.887 488.052 950.588 452.004 1011.48 452.004H1073.6C1160.21 452.004 1225.67 360.776 1210.18 261.666C1194.69 162.556 1260.15 71.3269 1346.76 71.3269H1448.85" stroke="#2D68FF" stroke-width="5" stroke-linecap="round" stroke-dasharray="0.05 20"/>
<path opacity="0.130435" d="M284.581 716H664.059C724.949 716 781.654 679.951 814.535 620.34L854.62 547.664C887.501 488.052 944.202 452.004 1005.1 452.004H1067.22C1153.82 452.004 1219.28 360.776 1203.79 261.666C1188.3 162.556 1253.76 71.3269 1340.37 71.3269H1442.47" stroke="#2D68FF" stroke-width="5" stroke-linecap="round" stroke-dasharray="0.05 20"/>
<path opacity="0.173913" d="M278.195 716H657.673C718.564 716 775.268 679.951 808.149 620.34L848.234 547.664C881.115 488.052 937.816 452.004 998.711 452.004H1060.83C1147.44 452.004 1212.9 360.776 1197.41 261.666C1181.92 162.556 1247.38 71.3269 1333.99 71.3269H1436.08" stroke="#2D68FF" stroke-width="5" stroke-linecap="round" stroke-dasharray="0.05 20"/>
<path opacity="0.217391" d="M271.811 716H651.288C712.179 716 768.883 679.951 801.764 620.34L841.85 547.664C874.73 488.052 931.432 452.004 992.326 452.004H1054.45C1141.05 452.004 1206.51 360.776 1191.02 261.666C1175.53 162.556 1240.99 71.3269 1327.6 71.3269H1429.7" stroke="#2D68FF" stroke-width="5" stroke-linecap="round" stroke-dasharray="0.05 20"/>
<path opacity="0.26087" d="M265.427 716H644.904C705.795 716 762.5 679.951 795.38 620.34L835.466 547.664C868.346 488.052 925.048 452.004 985.942 452.004H1048.06C1134.67 452.004 1200.13 360.776 1184.64 261.666C1169.15 162.556 1234.61 71.3269 1321.22 71.3269H1423.31" stroke="#2D68FF" stroke-width="5" stroke-linecap="round" stroke-dasharray="0.05 20"/>
<path opacity="0.304348" d="M259.041 716H638.519C699.409 716 756.114 679.951 788.995 620.34L829.08 547.664C861.961 488.052 918.662 452.004 979.557 452.004H1041.68C1128.28 452.004 1193.74 360.776 1178.25 261.666C1162.76 162.556 1228.22 71.3269 1314.83 71.3269H1416.93" stroke="#2D68FF" stroke-width="5" stroke-linecap="round" stroke-dasharray="0.05 20"/>
<path opacity="0.347826" d="M252.655 716H632.133C693.024 716 749.728 679.951 782.609 620.34L822.694 547.664C855.575 488.052 912.28 452.004 973.171 452.004H1035.29C1121.9 452.004 1187.36 360.776 1171.87 261.666C1156.38 162.556 1221.84 71.3269 1308.45 71.3269H1410.54" stroke="#2D68FF" stroke-width="5" stroke-linecap="round" stroke-dasharray="0.05 20"/>
<path opacity="0.391304" d="M246.271 716H625.749C686.64 716 743.344 679.951 776.225 620.34L816.311 547.664C849.191 488.052 905.896 452.004 966.787 452.004H1028.91C1115.51 452.004 1180.97 360.776 1165.48 261.666C1149.99 162.556 1215.45 71.3269 1302.06 71.3269H1404.16" stroke="#2D68FF" stroke-width="5" stroke-linecap="round" stroke-dasharray="0.05 20"/>
<path opacity="0.434783" d="M239.886 716H619.363C680.254 716 736.959 679.951 769.839 620.34L809.925 547.664C842.805 488.052 899.51 452.004 960.401 452.004H1022.52C1109.13 452.004 1174.59 360.776 1159.1 261.666C1143.61 162.556 1209.07 71.3269 1295.68 71.3269H1397.77" stroke="#2D68FF" stroke-width="5" stroke-linecap="round" stroke-dasharray="0.05 20"/>
<path opacity="0.478261" d="M233.5 716H612.978C673.868 716 730.573 679.951 763.454 620.34L803.539 547.664C836.42 488.052 893.124 452.004 954.016 452.004H1016.14C1102.74 452.004 1168.2 360.776 1152.71 261.666C1137.22 162.556 1202.68 71.3269 1289.29 71.3269H1391.39" stroke="#2D68FF" stroke-width="5" stroke-linecap="round" stroke-dasharray="0.05 20"/>
<path opacity="0.521739" d="M227.115 716H606.593C667.484 716 724.188 679.951 757.069 620.34L797.154 547.664C830.035 488.052 886.74 452.004 947.631 452.004H1009.75C1096.36 452.004 1161.82 360.776 1146.33 261.666C1130.84 162.556 1196.3 71.3269 1282.91 71.3269H1385" stroke="#2D68FF" stroke-width="5" stroke-linecap="round" stroke-dasharray="0.05 20"/>
<path opacity="0.565217" d="M220.73 716H600.208C661.099 716 717.803 679.951 750.684 620.34L790.77 547.664C823.65 488.052 880.355 452.004 941.246 452.004H1003.37C1089.97 452.004 1155.43 360.776 1139.94 261.666C1124.45 162.556 1189.91 71.3269 1276.52 71.3269H1378.62" stroke="#2D68FF" stroke-width="5" stroke-linecap="round" stroke-dasharray="0.05 20"/>
<path opacity="0.608696" d="M214.346 716H593.823C654.714 716 711.419 679.951 744.299 620.34L784.385 547.664C817.265 488.052 873.97 452.004 934.861 452.004H996.982C1083.59 452.004 1149.05 360.776 1133.56 261.666C1118.07 162.556 1183.53 71.3269 1270.14 71.3269H1372.23" stroke="#2D68FF" stroke-width="5" stroke-linecap="round" stroke-dasharray="0.05 20"/>
<path opacity="0.652174" d="M207.96 716H587.437C648.328 716 705.033 679.951 737.913 620.34L777.999 547.664C810.879 488.052 867.584 452.004 928.475 452.004H990.596C1077.2 452.004 1142.66 360.776 1127.17 261.666C1111.68 162.556 1177.14 71.3269 1263.75 71.3269H1365.85" stroke="#2D68FF" stroke-width="5" stroke-linecap="round" stroke-dasharray="0.05 20"/>
<path opacity="0.695652" d="M201.575 716H581.053C641.943 716 698.648 679.951 731.529 620.34L771.614 547.664C804.495 488.052 861.199 452.004 922.091 452.004H984.211C1070.82 452.004 1136.28 360.776 1120.79 261.666C1105.3 162.556 1170.76 71.3269 1257.36 71.3269H1359.46" stroke="#2D68FF" stroke-width="5" stroke-linecap="round" stroke-dasharray="0.05 20"/>
<path opacity="0.73913" d="M195.19 716H574.668C635.559 716 692.263 679.951 725.144 620.34L765.229 547.664C798.11 488.052 854.815 452.004 915.706 452.004H977.826C1064.43 452.004 1129.89 360.776 1114.4 261.666C1098.91 162.556 1164.37 71.3269 1250.98 71.3269H1353.08" stroke="#2D68FF" stroke-width="5" stroke-linecap="round" stroke-dasharray="0.05 20"/>
<path opacity="0.782609" d="M188.805 716H568.282C629.173 716 685.877 679.951 718.758 620.34L758.844 547.664C791.724 488.052 848.429 452.004 909.32 452.004H971.441C1058.05 452.004 1123.51 360.776 1108.02 261.666C1092.53 162.556 1157.99 71.3269 1244.59 71.3269H1346.69" stroke="#2D68FF" stroke-width="5" stroke-linecap="round" stroke-dasharray="0.05 20"/>
<path opacity="0.826087" d="M182.42 716H561.897C622.788 716 679.493 679.951 712.373 620.34L752.459 547.664C785.339 488.052 842.044 452.004 902.935 452.004H965.056C1051.66 452.004 1117.12 360.776 1101.63 261.666C1086.14 162.556 1151.6 71.3269 1238.21 71.3269H1340.31" stroke="#2D68FF" stroke-width="5" stroke-linecap="round" stroke-dasharray="0.05 20"/>
<path opacity="0.869565" d="M176.035 716H555.513C616.403 716 673.108 679.951 705.989 620.34L746.074 547.664C778.955 488.052 835.659 452.004 896.55 452.004H958.671C1045.28 452.004 1110.74 360.776 1095.25 261.666C1079.76 162.556 1145.22 71.3269 1231.82 71.3269H1333.92" stroke="#2D68FF" stroke-width="5" stroke-linecap="round" stroke-dasharray="0.05 20"/>
<path opacity="0.913043" d="M169.649 716H549.127C610.018 716 666.722 679.951 699.603 620.34L739.688 547.664C772.569 488.052 829.274 452.004 890.164 452.004H952.285C1038.89 452.004 1104.35 360.776 1088.86 261.666C1073.37 162.556 1138.83 71.3269 1225.44 71.3269H1327.54" stroke="#2D68FF" stroke-width="5" stroke-linecap="round" stroke-dasharray="0.05 20"/>
<path opacity="0.956522" d="M163.265 716H542.742C603.633 716 660.337 679.951 693.218 620.34L733.304 547.664C766.184 488.052 822.889 452.004 883.779 452.004H945.901C1032.51 452.004 1097.97 360.776 1082.48 261.666C1066.99 162.556 1132.45 71.3269 1219.05 71.3269H1321.15" stroke="#2D68FF" stroke-width="5" stroke-linecap="round" stroke-dasharray="0.05 20"/>
<path d="M156.88 716H536.357C597.248 716 653.953 679.952 686.833 620.34L726.919 547.665C759.799 488.052 816.504 452.005 877.395 452.005H939.516C1026.12 452.005 1091.58 360.776 1076.09 261.666C1060.6 162.556 1126.06 71.3271 1212.67 71.3271H1314.77" stroke="#2D68FF" stroke-width="5" stroke-linecap="round" stroke-dasharray="0.05 20"/>
</svg>
