<svg width="15" height="14" viewBox="0 0 15 14" fill="none" xmlns="http://www.w3.org/2000/svg">
<path d="M3.77635 12.0003L1.84426 11.5893C1.66862 11.555 1.5281 11.4665 1.42272 11.3235C1.31733 11.181 1.27635 11.0242 1.29977 10.8529L1.49297 8.91791L0.175644 7.44523C0.058548 7.31965 0 7.17124 0 7C0 6.82876 0.058548 6.68035 0.175644 6.55477L1.49297 5.08209L1.29977 3.14705C1.27635 2.97581 1.31733 2.81895 1.42272 2.67648C1.5281 2.53355 1.66862 2.44496 1.84426 2.41071L3.77635 1.99973L4.79508 0.321555C4.88876 0.173145 5.01756 0.0761077 5.1815 0.0304431C5.34543 -0.0152215 5.50937 -0.00951346 5.6733 0.0475673L7.5 0.801033L9.3267 0.0475673C9.49063 -0.00951346 9.65457 -0.0152215 9.8185 0.0304431C9.98244 0.0761077 10.1112 0.173145 10.2049 0.321555L11.2237 1.99973L13.1557 2.41071C13.3314 2.44496 13.4719 2.53355 13.5773 2.67648C13.6827 2.81895 13.7237 2.97581 13.7002 3.14705L13.507 5.08209L14.8244 6.55477C14.9415 6.68035 15 6.82876 15 7C15 7.17124 14.9415 7.31965 14.8244 7.44523L13.507 8.91791L13.7002 10.8529C13.7237 11.0242 13.6827 11.181 13.5773 11.3235C13.4719 11.4665 13.3314 11.555 13.1557 11.5893L11.2237 12.0003L10.2049 13.6784C10.1112 13.8269 9.98244 13.9239 9.8185 13.9696C9.65457 14.0152 9.49063 14.0095 9.3267 13.9524L7.5 13.199L5.6733 13.9524C5.50937 14.0095 5.34543 14.0152 5.1815 13.9696C5.01756 13.9239 4.88876 13.8269 4.79508 13.6784L3.77635 12.0003ZM6.27049 8.95216C6.3993 9.07774 6.56323 9.14053 6.7623 9.14053C6.96136 9.14053 7.12529 9.07774 7.2541 8.95216L10.24 6.04104C10.3806 5.90405 10.4508 5.74126 10.4508 5.55266C10.4508 5.36452 10.3806 5.20196 10.24 5.06496C10.0995 4.92797 9.93279 4.85947 9.73981 4.85947C9.54637 4.85947 9.37939 4.92797 9.23888 5.06496L6.7623 7.47948L5.74356 6.5034C5.60304 6.37782 5.4363 6.31777 5.24333 6.32325C5.04988 6.32919 4.88876 6.39494 4.75995 6.52052C4.63115 6.6461 4.56674 6.80593 4.56674 7C4.56674 7.19407 4.63115 7.3539 4.75995 7.47948L6.27049 8.95216Z" fill="#18A0F8"/>
<path d="M4.16569 7.3898C3.80505 7.0382 3.80505 6.46815 4.16569 6.11655C4.52633 5.76494 5.11104 5.76494 5.47168 6.11655L7.41638 8.01251L6.11039 9.28577L4.16569 7.3898Z" fill="white"/>
<rect width="1.82395" height="6.57947" rx="0.911974" transform="matrix(0.716022 0.698078 -0.716022 0.698078 10.2119 4.10986)" fill="white"/>
</svg>
