<svg width="25" height="25" viewBox="0 0 25 25" fill="none" xmlns="http://www.w3.org/2000/svg">
<path fill-rule="evenodd" clip-rule="evenodd" d="M12.5 25C5.59609 25 0 19.4039 0 12.5C0 5.59609 5.59609 0 12.5 0C19.4039 0 25 5.59609 25 12.5C25 19.4039 19.4039 25 12.5 25ZM18.7453 12.6711L12.8891 3.125L7.03125 12.6719L12.8891 16.0727L18.7453 12.6711ZM18.75 13.7625L12.8891 17.1617L7.03125 13.7633L12.8891 21.8711L18.75 13.7625Z" fill="black"/>
<path d="M12.8887 3.125V10.0547L18.7457 12.6719L12.8887 3.125ZM12.8887 17.1625V21.8711L18.7496 13.7625L12.8887 17.1625Z" fill="black" fill-opacity="0.298"/>
<path d="M12.8887 16.0726L18.7457 12.6718L12.8887 10.0562V16.0726Z" fill="black" fill-opacity="0.801"/>
<path d="M7.03125 12.6718L12.8891 16.0726V10.0562L7.03125 12.6718Z" fill="black" fill-opacity="0.298"/>
</svg>
