<svg width="31" height="25" viewBox="0 0 31 25" fill="none" xmlns="http://www.w3.org/2000/svg">
<path d="M26.2424 2.80193C24.2662 1.91068 22.1479 1.25193 19.9326 0.877346C19.9129 0.873559 19.8925 0.875999 19.8742 0.88433C19.8559 0.892661 19.8407 0.906471 19.8306 0.923846C19.5594 1.40047 19.2571 2.02176 19.0453 2.5126C16.6959 2.16157 14.3073 2.16157 11.9579 2.5126C11.722 1.96862 11.4559 1.43822 11.1609 0.923846C11.1509 0.906257 11.1358 0.892135 11.1176 0.883365C11.0993 0.874595 11.0789 0.871594 11.0589 0.874762C8.84498 1.24935 6.72664 1.9081 4.7491 2.80064C4.73209 2.80777 4.71767 2.81994 4.70777 2.83551C0.688103 8.74489 -0.413689 14.5083 0.127519 20.1994C0.129025 20.2133 0.133352 20.2268 0.140236 20.239C0.147119 20.2512 0.156416 20.2619 0.167561 20.2704C2.51373 21.9786 5.13058 23.2798 7.90852 24.1196C7.92788 24.1256 7.9486 24.1255 7.96795 24.1195C7.98731 24.1136 8.00441 24.1019 8.01702 24.086C8.6148 23.2866 9.14451 22.4384 9.6006 21.5505C9.60693 21.5383 9.61058 21.525 9.6113 21.5113C9.61202 21.4976 9.60979 21.484 9.60477 21.4712C9.59975 21.4585 9.59205 21.447 9.58219 21.4375C9.57234 21.428 9.56056 21.4207 9.54764 21.4161C8.71323 21.1019 7.90475 20.7227 7.12964 20.2821C7.11572 20.2741 7.10398 20.2628 7.09549 20.2492C7.087 20.2356 7.08202 20.2201 7.08099 20.2041C7.07997 20.1881 7.08293 20.1721 7.08962 20.1575C7.09631 20.1429 7.10651 20.1303 7.11931 20.1206C7.28206 20.0005 7.44481 19.8752 7.59981 19.7499C7.61376 19.7386 7.63057 19.7314 7.64836 19.7292C7.66614 19.7269 7.68422 19.7296 7.70056 19.737C12.7729 22.0155 18.2664 22.0155 23.2794 19.737C23.2957 19.7291 23.314 19.7261 23.332 19.7281C23.3501 19.7302 23.3672 19.7373 23.3814 19.7486C23.5364 19.8752 23.6979 20.0005 23.8619 20.1206C23.8748 20.1301 23.8852 20.1426 23.8921 20.157C23.899 20.1715 23.9022 20.1874 23.9014 20.2034C23.9007 20.2194 23.8959 20.235 23.8877 20.2487C23.8794 20.2624 23.8679 20.2739 23.8541 20.2821C23.0817 20.7264 22.2783 21.1023 21.4349 21.4148C21.4219 21.4195 21.4101 21.427 21.4002 21.4366C21.3904 21.4462 21.3827 21.4578 21.3777 21.4707C21.3727 21.4835 21.3704 21.4973 21.3712 21.511C21.3719 21.5248 21.3756 21.5382 21.3819 21.5505C21.8469 22.4378 22.3791 23.2826 22.9642 24.0847C22.9764 24.1012 22.9933 24.1135 23.0127 24.12C23.0321 24.1264 23.0531 24.1268 23.0727 24.1209C25.8554 23.2834 28.4765 21.9816 30.8253 20.2704C30.8367 20.2624 30.8463 20.252 30.8535 20.24C30.8606 20.228 30.8651 20.2146 30.8666 20.2007C31.5124 13.6209 29.7842 7.90401 26.2825 2.8381C26.2739 2.82163 26.2597 2.8088 26.2424 2.80193ZM10.3588 16.7338C8.83206 16.7338 7.57269 15.3531 7.57269 13.6597C7.57269 11.965 8.80752 10.5855 10.3588 10.5855C11.9217 10.5855 13.1695 11.9766 13.1449 13.6597C13.1449 15.3543 11.9101 16.7338 10.3588 16.7338ZM20.6599 16.7338C19.1318 16.7338 17.8737 15.3531 17.8737 13.6597C17.8737 11.965 19.1073 10.5855 20.6599 10.5855C22.2228 10.5855 23.4705 11.9766 23.446 13.6597C23.446 15.3543 22.2241 16.7338 20.6599 16.7338Z" fill="black"/>
</svg>
