<svg width="30" height="30" viewBox="0 0 30 30" fill="none" xmlns="http://www.w3.org/2000/svg">
<circle cx="15" cy="15" r="14.5" fill="#101010" stroke="#101010"/>
<path d="M10.6174 14.6418C10.6174 14.558 10.6339 14.4751 10.6661 14.3977C10.6982 14.3204 10.7453 14.2501 10.8046 14.191C10.864 14.1319 10.9344 14.0851 11.0119 14.0533C11.0894 14.0215 11.1723 14.0054 11.2561 14.0058L12.3149 14.0092C12.4837 14.0092 12.6456 14.0763 12.765 14.1958C12.8844 14.3152 12.9515 14.4771 12.9515 14.646V18.6512C13.0707 18.6159 13.2237 18.5782 13.3913 18.5389C13.5076 18.5115 13.6113 18.4456 13.6856 18.3518C13.7598 18.2581 13.8002 18.142 13.8002 18.0225V13.0543C13.8002 12.9707 13.8167 12.8879 13.8487 12.8106C13.8807 12.7333 13.9275 12.6631 13.9867 12.604C14.0458 12.5448 14.116 12.4979 14.1932 12.4659C14.2704 12.4339 14.3532 12.4174 14.4368 12.4174H15.4977C15.6666 12.4174 15.8285 12.4845 15.9478 12.6039C16.0672 12.7234 16.1343 12.8853 16.1343 13.0542V17.6654C16.1343 17.6654 16.3998 17.5579 16.6586 17.4486C16.7547 17.4079 16.8368 17.3399 16.8944 17.2529C16.9521 17.1659 16.9829 17.0638 16.983 16.9594V11.4621C16.983 11.3785 16.9995 11.2957 17.0315 11.2184C17.0634 11.1412 17.1103 11.071 17.1694 11.0118C17.2285 10.9527 17.2987 10.9058 17.3759 10.8738C17.4532 10.8418 17.5359 10.8253 17.6195 10.8253H18.6804C18.8493 10.8253 19.0112 10.8924 19.1306 11.0118C19.25 11.1312 19.317 11.2932 19.317 11.4621V15.9889C20.2368 15.322 21.169 14.52 21.9088 13.5556C22.0161 13.4156 22.0871 13.2512 22.1155 13.0771C22.1439 12.9029 22.1287 12.7245 22.0714 12.5577C21.5709 11.0984 20.632 9.82949 19.3832 8.92432C18.1343 8.01914 16.6365 7.52194 15.0944 7.50068C10.9362 7.4448 7.49963 10.8404 7.50004 15.0006C7.49595 16.317 7.83942 17.6112 8.4957 18.7523C8.5862 18.9083 8.71935 19.0353 8.8795 19.1183C9.03966 19.2013 9.22016 19.2369 9.39981 19.2208C9.60052 19.2031 9.85041 19.1781 10.1475 19.1433C10.2768 19.1285 10.3961 19.0668 10.4829 18.9697C10.5696 18.8726 10.6175 18.747 10.6177 18.6168V14.6418" fill="white"/>
<path d="M10.5943 21.0652C11.7126 21.879 13.0342 22.3675 14.4128 22.4766C15.7914 22.5858 17.1733 22.3112 18.4056 21.6835C19.638 21.0557 20.6727 20.0991 21.3953 18.9196C22.1179 17.7401 22.5002 16.3836 22.5 15.0002C22.5 14.8275 22.492 14.6568 22.4804 14.4869C19.7415 18.5731 14.6844 20.4834 10.5943 21.0654" fill="white"/>
</svg>
