<svg width="30" height="30" viewBox="0 0 30 30" fill="none" xmlns="http://www.w3.org/2000/svg">
<circle cx="15" cy="15" r="14.5" fill="#101010" stroke="#101010"/>
<path d="M22.2226 14.2586C22.5925 14.7014 22.5925 15.2993 22.2226 15.7414C21.0578 17.1336 18.263 20 15.0001 20C11.7372 20 8.94248 17.1336 7.77761 15.7414C7.59767 15.5294 7.5 15.2685 7.5 15C7.5 14.7315 7.59767 14.4706 7.77761 14.2586C8.94248 12.8664 11.7372 10 15.0001 10C18.263 10 21.0578 12.8664 22.2226 14.2586Z" stroke="white" stroke-linecap="round" stroke-linejoin="round"/>
<path d="M15.0001 17.1429C16.2928 17.1429 17.3408 16.1835 17.3408 15C17.3408 13.8165 16.2928 12.8571 15.0001 12.8571C13.7074 12.8571 12.6595 13.8165 12.6595 15C12.6595 16.1835 13.7074 17.1429 15.0001 17.1429Z" stroke="white" stroke-linecap="round" stroke-linejoin="round"/>
</svg>
