<svg width="30" height="30" viewBox="0 0 30 30" fill="none" xmlns="http://www.w3.org/2000/svg">
<circle cx="15" cy="15" r="14.5" fill="#101010" stroke="#101010"/>
<path d="M22.4954 10.9613C22.4947 10.9571 22.4939 10.9531 22.4932 10.9489C22.49 10.9302 22.4862 10.9115 22.481 10.8925C22.48 10.8894 22.4792 10.8862 22.4782 10.8831C22.4719 10.8626 22.4646 10.8423 22.4554 10.8221C22.4533 10.8181 22.4513 10.8143 22.4491 10.8102C22.4443 10.8002 22.44 10.7903 22.4344 10.7805C22.4312 10.775 22.4278 10.77 22.4242 10.7647C22.421 10.7595 22.4179 10.7544 22.4147 10.7493C22.4032 10.7327 22.3916 10.7168 22.3791 10.7017C22.378 10.7006 22.3769 10.6992 22.3759 10.698C22.3615 10.681 22.3458 10.6654 22.329 10.6507C22.3261 10.6479 22.3231 10.6453 22.3194 10.6427C22.3048 10.6302 22.2894 10.6185 22.2736 10.6078C22.2704 10.6057 22.2677 10.6034 22.2645 10.6015C22.2459 10.5894 22.2263 10.5786 22.2064 10.569C22.205 10.5684 22.2039 10.5675 22.2027 10.5668L19.9977 9.53176V8.86244C19.9977 8.84004 19.9959 8.81781 19.9929 8.79535C19.9925 8.7913 19.9918 8.78714 19.991 8.78292C19.9882 8.76416 19.9837 8.74547 19.9785 8.72671C19.9775 8.72357 19.9771 8.72021 19.976 8.71725C19.9694 8.69661 19.962 8.67643 19.9529 8.6563C19.9511 8.65226 19.9491 8.64844 19.947 8.64456C19.9425 8.63441 19.9379 8.62444 19.932 8.6148C19.9291 8.60939 19.9253 8.60431 19.9221 8.59907C19.9189 8.59382 19.9155 8.58858 19.9123 8.58351C19.9012 8.56703 19.8895 8.55147 19.877 8.53659C19.8759 8.53516 19.8748 8.53363 19.8738 8.53237C19.8591 8.51555 19.8437 8.50016 19.8272 8.48545C19.8236 8.48249 19.8206 8.4797 19.8166 8.47685C19.8027 8.46459 19.7876 8.45319 19.7722 8.44287C19.7687 8.44059 19.7652 8.43814 19.7617 8.43569C19.7434 8.42394 19.7242 8.41311 19.7047 8.40365C19.7029 8.40314 19.7018 8.40205 19.7006 8.40137L15.2273 6.30058C15.084 6.23314 14.9167 6.23314 14.7732 6.30058L10.2997 8.40108C10.2988 8.40159 10.2977 8.40233 10.2969 8.40284C10.2765 8.41265 10.2566 8.42371 10.2376 8.43597C10.2349 8.43773 10.2324 8.43967 10.2295 8.44138C10.2132 8.45221 10.1978 8.4643 10.1828 8.47712C10.1796 8.47975 10.1767 8.4822 10.1734 8.48482C10.1571 8.49953 10.1412 8.51509 10.1267 8.53208C10.1256 8.53351 10.1245 8.53487 10.1233 8.5363C10.1109 8.55101 10.0994 8.56657 10.0885 8.58304C10.085 8.58829 10.0815 8.5937 10.0783 8.59901C10.0749 8.60425 10.0713 8.60915 10.0685 8.6144C10.0629 8.62386 10.0586 8.6335 10.054 8.6433C10.0518 8.64769 10.0493 8.65191 10.0473 8.65624C10.0383 8.67602 10.0308 8.69615 10.0246 8.7165C10.0235 8.72021 10.0228 8.72368 10.0217 8.72716C10.0165 8.74535 10.0126 8.76359 10.0095 8.782C10.0088 8.78639 10.0081 8.79095 10.0074 8.79551C10.0043 8.8174 10.0025 8.83963 10.0025 8.8617V9.53136L7.79772 10.5672C7.79667 10.5676 7.79573 10.5685 7.79468 10.5692C7.7741 10.5788 7.75439 10.5898 7.73539 10.6021C7.73253 10.6039 7.73002 10.606 7.72716 10.6079C7.71107 10.6187 7.69544 10.6305 7.68058 10.6433C7.67754 10.6459 7.6741 10.6485 7.67107 10.6513C7.65475 10.6659 7.639 10.6814 7.62431 10.6984C7.62326 10.6998 7.62233 10.7014 7.6211 10.7028C7.60857 10.7175 7.59708 10.7331 7.58618 10.7495C7.58262 10.755 7.57901 10.7602 7.57597 10.7657C7.57259 10.7707 7.56898 10.7757 7.56595 10.7809C7.56058 10.7904 7.55609 10.8002 7.5516 10.81C7.54944 10.8142 7.54694 10.8186 7.54478 10.8229C7.53598 10.8427 7.52845 10.8628 7.52204 10.8832C7.52099 10.8869 7.52023 10.8905 7.51918 10.8938C7.51417 10.912 7.51003 10.9303 7.507 10.9488C7.5063 10.9532 7.50554 10.9578 7.50501 10.9621C7.50198 10.9842 7.50017 11.0064 7.5 11.0283V19.4552C7.5 19.6414 7.60355 19.8133 7.77014 19.9037L14.7457 23.6855C14.7458 23.6859 14.7462 23.6859 14.7464 23.6859C14.7648 23.696 14.7841 23.7046 14.8037 23.7125C14.8071 23.7137 14.8103 23.7149 14.8135 23.716C14.8295 23.7219 14.8454 23.7268 14.8621 23.7315C14.8671 23.733 14.8725 23.7342 14.8775 23.7352C14.8927 23.7389 14.9079 23.7414 14.9237 23.744C14.9287 23.7447 14.9339 23.7458 14.9391 23.7463C14.959 23.7486 14.9792 23.75 15 23.75C15.0208 23.75 15.041 23.7484 15.0609 23.7463C15.0661 23.7458 15.0713 23.7447 15.0763 23.744C15.0918 23.7414 15.1072 23.7389 15.1223 23.7352C15.1275 23.734 15.1329 23.7328 15.1381 23.7315C15.1546 23.727 15.1703 23.7219 15.1864 23.716C15.1896 23.7149 15.1927 23.7137 15.1963 23.7125C15.2158 23.7046 15.2352 23.6958 15.2536 23.6859C15.2539 23.6859 15.2543 23.6859 15.2543 23.6855L22.2298 19.9037C22.3964 19.8133 22.4999 19.6415 22.4999 19.4552L22.5 11.0291C22.5 11.029 22.4997 11.0286 22.4997 11.0284C22.4998 11.006 22.4984 10.9836 22.4953 10.9613L22.4954 10.9613ZM20.8342 11.0618L19.9977 11.5152V10.6688L20.8342 11.0618ZM15.5248 13.9405V11.5904L18.9494 9.73365V12.0839L15.5248 13.9405ZM11.0512 9.73351L14.4762 11.5903V13.9403L11.0512 12.0837V9.73351ZM15.0002 7.33121L18.3322 8.89582L15.0002 10.7023L11.6683 8.89582L15.0002 7.33121ZM10.0026 11.5153L9.16617 11.0619L10.0026 10.6691V11.5153ZM8.54893 11.8995L10.2749 12.8352C10.2762 12.8357 10.2774 12.8365 10.2787 12.8372L14.4762 15.1129V22.3664L8.54913 19.1531L8.54907 11.8995L8.54893 11.8995ZM15.5247 22.3662V15.1128L19.7223 12.837C19.7233 12.8365 19.7244 12.8358 19.7258 12.8352L21.4519 11.8994V19.153L15.5247 22.3662Z" fill="white"/>
</svg>
