<svg width="32" height="32" viewBox="0 0 32 32" fill="none" xmlns="http://www.w3.org/2000/svg">
<circle cx="16" cy="16" r="15.5" fill="white" stroke="#C0C0C0"/>
<path d="M15.4993 21.3333C15.4993 21.6094 15.7232 21.8333 15.9993 21.8333C16.2755 21.8333 16.4993 21.6094 16.4993 21.3333H15.4993ZM16.4993 10.6666C16.4993 10.3905 16.2755 10.1666 15.9993 10.1666C15.7232 10.1666 15.4993 10.3905 15.4993 10.6666H16.4993ZM21.3327 16.5C21.6088 16.5 21.8327 16.2761 21.8327 16C21.8327 15.7238 21.6088 15.5 21.3327 15.5V16.5ZM10.666 15.5C10.3899 15.5 10.166 15.7238 10.166 16C10.166 16.2761 10.3899 16.5 10.666 16.5V15.5ZM16.4993 21.3333V16H15.4993V21.3333H16.4993ZM16.4993 16V10.6666H15.4993V16H16.4993ZM15.9993 16.5H21.3327V15.5H15.9993V16.5ZM15.9993 15.5H10.666V16.5H15.9993V15.5Z" fill="#C0C0C0"/>
</svg>
