<?xml version="1.0" encoding="utf-8"?>
<!-- Generator: Adobe Illustrator 24.3.0, SVG Export Plug-In . SVG Version: 6.00 Build 0)  -->
<svg version="1.1" id="Layer_1" xmlns="http://www.w3.org/2000/svg" xmlns:xlink="http://www.w3.org/1999/xlink" x="0px" y="0px"
	 viewBox="0 0 30 30" style="enable-background:new 0 0 30 30;" xml:space="preserve">
<style type="text/css">
	.st0{fill:#101010;stroke:#101010;}
	.st1{fill:#FFFFFF;}
</style>
<circle class="st0" cx="15" cy="15" r="14.5"/>
<path class="st1" d="M18.9,12.4c-0.3-0.2-0.6-0.2-0.9,0l-2.2,1.3l-1.5,0.8l-2.2,1.3c-0.3,0.2-0.6,0.2-0.9,0l-1.7-1
	c-0.3-0.2-0.5-0.5-0.5-0.8v-2c0-0.3,0.2-0.6,0.5-0.8l1.7-1c0.3-0.2,0.6-0.2,0.9,0l1.7,1c0.3,0.2,0.5,0.5,0.5,0.8v1.3l1.5-0.9v-1.3
	c0-0.3-0.2-0.6-0.5-0.8l-3.2-1.8c-0.3-0.2-0.6-0.2-0.9,0l-3.2,1.9c-0.3,0.2-0.5,0.5-0.5,0.8v3.7c0,0.3,0.2,0.6,0.5,0.8l3.2,1.8
	c0.3,0.2,0.6,0.2,0.9,0l2.2-1.3l1.5-0.9l2.2-1.3c0.3-0.2,0.6-0.2,0.9,0l1.7,1c0.3,0.2,0.5,0.5,0.5,0.8v2c0,0.3-0.2,0.6-0.5,0.8
	l-1.7,1c-0.3,0.2-0.6,0.2-0.9,0l-1.7-1c-0.3-0.2-0.5-0.5-0.5-0.8v-1.3l-1.5,0.9v1.3c0,0.3,0.2,0.6,0.5,0.8l3.2,1.8
	c0.3,0.2,0.6,0.2,0.9,0l3.2-1.8c0.3-0.2,0.5-0.5,0.5-0.8v-3.7c0-0.3-0.2-0.6-0.5-0.8L18.9,12.4z"/>
</svg>
