<svg width="30" height="30" viewBox="0 0 30 30" fill="none" xmlns="http://www.w3.org/2000/svg">
<path d="M18.9643 20.9434C19.1451 21.1227 19.1451 21.3949 18.9643 21.5543C17.3237 23.1813 12.683 23.1879 11.0357 21.5543C10.8549 21.3949 10.8549 21.1227 11.0357 20.9434C11.1964 20.784 11.471 20.784 11.6317 20.9434C12.8839 22.2184 17.0558 22.2449 18.3616 20.9434C18.5223 20.7906 18.8036 20.7906 18.9643 20.9434ZM12.8504 17.3707C12.8504 16.3813 12.0536 15.591 11.0759 15.591C10.0781 15.591 9.28125 16.3813 9.28125 17.3707C9.28125 18.3402 10.0781 19.1305 11.0759 19.1305C12.0536 19.1305 12.8504 18.3402 12.8504 17.3707ZM18.9241 15.591C17.9464 15.591 17.1496 16.3813 17.1496 17.3707C17.1496 18.3402 17.9464 19.1305 18.9241 19.1305C19.9219 19.1305 20.7187 18.3402 20.7187 17.3707C20.7187 16.3813 19.9219 15.591 18.9241 15.591ZM30 3.3125V26.6875C30 28.4473 28.5603 29.875 26.7857 29.875H3.21429C1.43973 29.875 0 28.4473 0 26.6875V3.3125C0 1.55273 1.43973 0.125 3.21429 0.125H26.7857C28.5603 0.125 30 1.55273 30 3.3125ZM23.3237 12.6492C22.6473 12.6492 22.0513 12.9281 21.6094 13.3598C19.9955 12.2508 17.8259 11.5402 15.4152 11.4605L16.6674 5.86914L20.6518 6.75898C20.6518 7.72852 21.4487 8.51875 22.4263 8.51875C23.4241 8.51875 24.221 7.70859 24.221 6.73906C24.221 5.76953 23.4241 4.95938 22.4263 4.95938C21.7299 4.95938 21.1339 5.37109 20.8326 5.94883L16.433 4.9793C16.2121 4.91953 15.9978 5.07891 15.9375 5.29805L14.5647 11.4605C12.1741 11.5602 10.0246 12.2707 8.41071 13.3797C7.97545 12.9281 7.35268 12.6492 6.67634 12.6492C4.16518 12.6492 3.34152 15.9961 5.63839 17.1316C5.55804 17.4902 5.51786 17.8621 5.51786 18.2406C5.51786 21.9926 9.78348 25.034 15.0201 25.034C20.2768 25.034 24.5424 21.9926 24.5424 18.2406C24.5424 17.8621 24.5022 17.4703 24.4018 17.1117C26.6518 15.9695 25.8214 12.6492 23.3237 12.6492Z" fill="black"/>
</svg>
