<svg width="65" height="45" viewBox="0 0 65 45" fill="none" xmlns="http://www.w3.org/2000/svg">
<path fill-rule="evenodd" clip-rule="evenodd" d="M22.8125 22.4999C22.8125 22.127 22.9607 21.7693 23.2244 21.5056C23.4881 21.2418 23.8458 21.0937 24.2187 21.0937L57.3866 21.0937L48.5356 12.2456C48.2716 11.9815 48.1232 11.6234 48.1232 11.2499C48.1232 10.8765 48.2716 10.5184 48.5356 10.2543C48.7997 9.99025 49.1578 9.84191 49.5313 9.84191C49.9047 9.84191 50.2628 9.99025 50.5269 10.2543L61.7769 21.5043C61.9078 21.6349 62.0117 21.7901 62.0826 21.961C62.1535 22.1318 62.19 22.315 62.19 22.4999C62.19 22.6849 62.1535 22.8681 62.0826 23.0389C62.0117 23.2097 61.9078 23.3649 61.7769 23.4956L50.5269 34.7456C50.2628 35.0096 49.9047 35.158 49.5313 35.158C49.1578 35.158 48.7997 35.0096 48.5356 34.7456C48.2716 34.4815 48.1232 34.1234 48.1232 33.7499C48.1232 33.3765 48.2716 33.0184 48.5356 32.7543L57.3866 23.9062L24.2187 23.9062C23.8458 23.9062 23.4881 23.758 23.2244 23.4943C22.9607 23.2306 22.8125 22.8729 22.8125 22.4999Z" fill="black"/>
<rect y="21" width="61" height="3" rx="1.5" fill="black"/>
</svg>
