<svg width="31" height="31" viewBox="0 0 31 31" fill="none" xmlns="http://www.w3.org/2000/svg">
<path d="M25.8333 9.72786C25.0799 10.0642 24.2658 10.293 23.3913 10.4141C24.3062 9.87587 24.9319 9.08876 25.2682 8.05273C24.3937 8.56402 23.4922 8.90712 22.5638 9.08203C21.7431 8.19401 20.7138 7.75 19.4759 7.75C18.3053 7.75 17.3063 8.16374 16.4788 8.99121C15.6514 9.81868 15.2376 10.8177 15.2376 11.9883C15.2376 12.3785 15.2713 12.7014 15.3385 12.957C13.6029 12.8628 11.9748 12.4256 10.4544 11.6452C8.93403 10.8648 7.64236 9.82205 6.57943 8.51693C6.18924 9.18967 5.99414 9.90278 5.99414 10.6562C5.99414 12.1901 6.60634 13.3674 7.83073 14.1882C7.19835 14.1747 6.52561 13.9998 5.8125 13.6634V13.7038C5.8125 14.7129 6.14887 15.611 6.82161 16.3981C7.49436 17.1852 8.32183 17.673 9.30404 17.8613C8.91385 17.969 8.57075 18.0228 8.27474 18.0228C8.09983 18.0228 7.83746 17.9959 7.48763 17.9421C7.77018 18.7897 8.27138 19.4894 8.99121 20.041C9.71105 20.5927 10.5284 20.8752 11.4434 20.8887C9.8826 22.0996 8.12674 22.7051 6.17578 22.7051C5.82595 22.7051 5.48958 22.6849 5.16667 22.6445C7.15799 23.9093 9.32422 24.5417 11.6654 24.5417C13.1723 24.5417 14.5851 24.3028 15.9036 23.8252C17.2222 23.3475 18.3524 22.7084 19.2943 21.9079C20.2361 21.1073 21.0468 20.1857 21.7262 19.1429C22.4057 18.1002 22.9103 17.0103 23.2399 15.8734C23.5696 14.7364 23.7344 13.6029 23.7344 12.4727C23.7344 12.2305 23.7276 12.0488 23.7142 11.9277C24.5618 11.3223 25.2682 10.589 25.8333 9.72786ZM31 5.8125V25.1875C31 26.7886 30.4315 28.1577 29.2946 29.2946C28.1577 30.4315 26.7886 31 25.1875 31H5.8125C4.21137 31 2.84234 30.4315 1.7054 29.2946C0.568468 28.1577 0 26.7886 0 25.1875V5.8125C0 4.21137 0.568468 2.84234 1.7054 1.7054C2.84234 0.568468 4.21137 0 5.8125 0H25.1875C26.7886 0 28.1577 0.568468 29.2946 1.7054C30.4315 2.84234 31 4.21137 31 5.8125Z" fill="black"/>
</svg>
